<svg width="33" height="32" viewBox="0 0 33 32" fill="none" xmlns="http://www.w3.org/2000/svg">
<g clip-path="url(#clip0_14_73)">
<path d="M17.6077 9.33335H14.9411V14.6667H9.60774V17.3334H14.9411V22.6667H17.6077V17.3334H22.9411V14.6667H17.6077V9.33335ZM16.2744 2.66669C8.9144 2.66669 2.94107 8.64002 2.94107 16C2.94107 23.36 8.9144 29.3334 16.2744 29.3334C23.6344 29.3334 29.6077 23.36 29.6077 16C29.6077 8.64002 23.6344 2.66669 16.2744 2.66669ZM16.2744 26.6667C10.3944 26.6667 5.60774 21.88 5.60774 16C5.60774 10.12 10.3944 5.33335 16.2744 5.33335C22.1544 5.33335 26.9411 10.12 26.9411 16C26.9411 21.88 22.1544 26.6667 16.2744 26.6667Z" fill="white"/>
</g>
<defs>
<clipPath id="clip0_14_73">
<rect width="32" height="32" fill="white" transform="translate(0.274414)"/>
</clipPath>
</defs>
</svg>
